<svg width="800" height="600" xmlns="http://www.w3.org/2000/svg">

 <g>
  <title>Layer 1</title>
  <g id="svg_23">
   <ellipse ry="102.30769" rx="102.30769" id="svg_2" cy="299.23078" cx="399.99999" fill="#ff005d"/>
   <path id="svg_4" d="m360.76922,249.23077l-1.53846,39.23076" opacity="NaN" fill="#ff005d"/>
   <path id="svg_6" d="m359.62284,249.01957l-0.39212,38.43138l3.92157,4.70588l9.01961,0l7.45098,-3.52941l0,-39.60784" opacity="NaN" fill="#ff005d"/>
   <path id="svg_5" d="m360.015,249.01957l20.00003,-0.39214l0,38.43137l0,5.09804l-7.84314,0l-5.09804,0l-2.7451,-2.7451c0.01402,0.01402 -3.9216,-1.56864 -3.9216,-1.9608c0,-0.39216 0,-7.10226 -0.39212,-7.45097" opacity="NaN" fill="#ff005d"/>
   <ellipse ry="10.37715" rx="10.37715" id="svg_7" cy="314.37418" cx="369.73375" fill="#ffffff"/>
   <line id="svg_9" y2="298.57261" x2="382.46934" y1="299.51599" x1="381.52596" fill="none"/>
   <line id="svg_10" y2="254.34765" x2="426.45846" y1="299.28015" x1="381.52596" fill="none"/>
   <path id="svg_13" d="m421.80983,298.37063l-19.14948,7.42691l19.14948,7.4269l-10.94373,4.24693l-30.09319,-11.67383l30.09319,-11.67472" fill="none"/>
   <path id="svg_20" d="m407.7549,298.28456l37.42871,49.82714l-24.64976,0l-37.42871,-49.82714l37.42871,-49.8271l24.64976,0l-37.42871,49.8271z" fill="#ffffff"/>
   <path transform="rotate(90, 369.762, 271.524)" id="svg_22" d="m346.10888,259.54437l23.65288,0l0,0c13.06313,0 23.65288,5.36366 23.65288,11.98008c0,6.61641 -10.58975,11.98008 -23.65288,11.98008l-23.65288,0l0,-23.96015z" fill="#ffffff"/>
  </g>
 </g>
</svg>